Coordinates
version=1
nRows=16
nColumns=22
inDegrees=yes

Units are S.I. units (second, meters, Newtons, ...)
If the header above contains a line with 'inDegrees', this indicates whether rotational values are in degrees (yes) or radians (no).

endheader
time	pelvis_tilt	pelvis_list	pelvis_rotation	pelvis_tx	pelvis_ty	pelvis_tz	hip_flexion_r	hip_adduction_r	hip_rotation_r	knee_angle_r	ankle_angle_r	subtalar_angle_r	hip_flexion_l	hip_adduction_l	hip_rotation_l	knee_angle_l	ankle_angle_l	subtalar_angle_l	lumbar_extension	lumbar_bending	lumbar_rotation
      0.01000000	      0.80691775	     -4.00424250	     -2.86073624	      0.15887841	      1.02122445	      0.72747320	      0.07302617	      6.50874959	     -3.23006076	     -9.56366791	      9.20046896	     -1.93244695	      0.87804046	     -3.27399913	     -9.61657340	    -10.95652836	     11.23747633	     -4.23624074	    -11.08531288	      3.41834823	      1.99049831
      0.02000000	      0.80310349	     -4.00650653	     -2.84863895	      0.15883738	      1.02122422	      0.72738462	      0.07859287	      6.50825651	     -3.22987063	     -9.56060254	      9.19854486	     -1.93224808	      0.88474001	     -3.27233417	     -9.61758505	    -10.95177332	     11.23771573	     -4.23686629	    -11.09847552	      3.41940989	      1.99582317
      0.03000000	      0.80391793	     -4.01059780	     -2.82815795	      0.15877368	      1.02123269	      0.72726719	      0.08696962	      6.50757730	     -3.24046120	     -9.57020466	      9.18514802	     -1.93154396	      0.89758161	     -3.27198467	     -9.59590227	    -10.96526760	     11.23112410	     -4.24109245	    -11.12139821	      3.42044018	      2.02569776
      0.04000000	      0.79882917	     -4.01337589	     -2.81564328	      0.15872590	      1.02123257	      0.72715698	      0.09532782	      6.50617785	     -3.24127828	     -9.56760905	      9.18429003	     -1.93152898	      0.90497498	     -3.26967688	     -9.59613169	    -10.95799454	     11.23099321	     -4.24189970	    -11.13804559	      3.42073386	      2.03167407
      0.05000000	      0.79997833	     -4.01548193	     -2.79384175	      0.15865355	      1.02124247	      0.72702052	      0.11179632	      6.50147772	     -3.25993486	     -9.59174908	      9.17526450	     -1.93058855	      0.91767529	     -3.26528175	     -9.56385861	    -10.97026244	     11.22101230	     -4.24767390	    -11.16481397	      3.41800989	      2.06434159
      0.06000000	      0.79601708	     -4.01574989	     -2.77158117	      0.15859512	      1.02124352	      0.72687847	      0.13147726	      6.49413233	     -3.28297130	     -9.61252960	      9.17334876	     -1.92813325	      0.93060974	     -3.25885596	     -9.53839044	    -10.97181776	     11.21337114	     -4.25590345	    -11.18422964	      3.41512460	      2.07579237
      0.07000000	      0.79058194	     -4.01889004	     -2.76148189	      0.15856346	      1.02124333	      0.72675857	      0.13937486	      6.49164894	     -3.28413983	     -9.61040030	      9.17395029	     -1.92770749	      0.93803183	     -3.25611646	     -9.53843309	    -10.96572604	     11.21334919	     -4.25680064	    -11.19909571	      3.41429521	      2.07882074
      0.08000000	      0.77195094	     -4.00851700	     -2.72492351	      0.15849346	      1.02121557	      0.72657962	      0.19043913	      6.47025413	     -3.35416844	     -9.65802647	      9.19054300	     -1.90914253	      0.97624417	     -3.23685937	     -9.48010817	    -10.97885355	     11.19916150	     -4.28226225	    -11.20080371	      3.40230859	      2.06600769
      0.09000000	      0.76819584	     -4.00989171	     -2.71163020	      0.15844916	      1.02121495	      0.72644541	      0.20332415	      6.46458994	     -3.34833497	     -9.66919563	      9.18899820	     -1.90489920	      0.99314462	     -3.23259322	     -9.46744241	    -10.99345432	     11.19663863	     -4.28666559	    -11.21916597	      3.39905640	      2.07463742
      0.10000000	      0.76285887	     -4.01343242	     -2.70531370	      0.15843312	      1.02121356	      0.72631660	      0.21073993	      6.46096854	     -3.34834903	     -9.66884860	      9.18905768	     -1.90404828	      1.00015518	     -3.22947142	     -9.46735694	    -10.99026886	     11.19686187	     -4.28746273	    -11.23241233	      3.39898995	      2.07698326
      0.11000000	      0.72858418	     -3.99886815	     -2.68501695	      0.15836852	      1.02115918	      0.72614751	      0.28243090	      6.43444490	     -3.39887134	     -9.72526008	      9.20803568	     -1.87284285	      1.05966852	     -3.20732577	     -9.43259326	    -11.01697785	     11.19102482	     -4.31469634	    -11.21535643	      3.38188756	      2.06811242
      0.12000000	      0.72337645	     -4.00291180	     -2.68019445	      0.15836112	      1.02115750	      0.72600651	      0.28852030	      6.43025276	     -3.39614931	     -9.72411723	      9.20806492	     -1.87214100	      1.06680369	     -3.20379735	     -9.43170017	    -11.01577305	     11.19089059	     -4.31534679	    -11.22796586	      3.38356798	      2.07040103
      0.13000000	      0.71625978	     -4.00136524	     -2.67492590	      0.15831278	      1.02115123	      0.72586074	      0.31039836	      6.41922880	     -3.39135161	     -9.74554809	      9.20684647	     -1.86495133	      1.09031063	     -3.19514892	     -9.41291977	    -11.03914729	     11.18725403	     -4.32118439	    -11.24513149	      3.37674403	      2.07856901
      0.14000000	      0.70988933	     -4.00465194	     -2.66954829	      0.15831874	      1.02114868	      0.72569400	      0.31678611	      6.41219378	     -3.39162698	     -9.74427352	      9.20763038	     -1.86390347	      1.09719640	     -3.18903767	     -9.41376804	    -11.03604505	     11.18756807	     -4.32213089	    -11.25444410	      3.38118957	      2.08159725
      0.15000000	      0.69107694	     -3.99492148	     -2.66308514	      0.15828215	      1.02112259	      0.72551910	      0.35353626	      6.38987595	     -3.40649595	     -9.76989460	      9.21249075	     -1.84852249	      1.13359380	     -3.16986343	     -9.39188512	    -11.05940070	     11.18231956	     -4.33405728	    -11.25528185	      3.36703081	      2.10621233
      0.16000000	      0.68256735	     -3.99922724	     -2.65934544	      0.15829376	      1.02111887	      0.72534139	      0.36067376	      6.38367781	     -3.40708710	     -9.76598810	      9.21423280	     -1.84715704	      1.14055778	     -3.16373721	     -9.39396711	    -11.05370494	     11.18248856	     -4.33525139	    -11.26436463	      3.37232421	      2.10815385
